<?xml version="1.0" encoding="utf-8"?>
<!-- Generator: Adobe Illustrator 26.4.1, SVG Export Plug-In . SVG Version: 6.00 Build 0)  -->
<svg version="1.1" id="Layer_1" xmlns="http://www.w3.org/2000/svg" xmlns:xlink="http://www.w3.org/1999/xlink" x="0px" y="0px"
	 viewBox="0 0 500 500" style="enable-background:new 0 0 500 500;" xml:space="preserve">
<style type="text/css">
	.st0{fill:#FFDF29;}
	.st1{fill:#717171;}
	.st2{fill:#8B8B8B;}
	.st3{fill:#A9CEDB;}
</style>
<path class="st0" d="M245.3,383.4c-13-48.2-25.9-96.2-38.9-144.4c-0.7-2.8-0.8-4.4,2.9-4.5c4.9-0.1,9.1-2.4,13-5.5
	c5.8-4.8,9.8-4.6,15.6,0.4c8,6.9,16.8,6.9,24.9-0.2c5.6-4.8,9.8-5,15.6-0.1c3.6,3,7.4,5.2,12,5.2c4.4,0,4.4,1.8,3.5,5.2
	c-7.8,29.4-15.4,58.9-23.1,88.2c-4.8,18.5-9.7,37-14.5,55.5C252.5,383.8,248.8,383.8,245.3,383.4z"/>
<path class="st1" d="M306.7,458c-0.5,4.5-0.6,8.9-3.1,12.9c-4.2,6.6-10.5,9-17.9,8.9c-3,0-4.8,0.8-6.4,3.6
	c-5.1,9.1-13.7,13.7-23.3,16.7c-3.9,0-7.6,0-11.5,0c-10.5-3.3-19.4-8.6-24.6-18.8c-0.7-1.4-2-1.4-3.3-1.5c-15.9-1.6-20.4-6-22-21.9
	c1.3-2.1,3.5-2.1,5.5-2.1c33.7-0.1,67.4-0.1,101.1,0C303.2,456,305.4,455.9,306.7,458z"/>
<path class="st0" d="M253.1,0c5.9,3.1,7.7,8.1,7.5,14.5c-0.3,9.5,0,19.1-0.1,28.6c-0.1,7.2-3,10.9-8.6,11.7
	c-5.8,0.8-10.3-2.3-11.4-8.1c-0.4-2.3-0.5-4.7-0.5-7.1c-0.1-8.7,0.1-17.5-0.1-26.2C239.8,6.9,242,2.3,248.3,0
	C249.8,0,251.4,0,253.1,0z"/>
<path class="st0" d="M194.8,384c-6.7-21.1-19-38.3-35.7-52.6c-25-21.5-41.2-48.4-47.2-80.9c-12.7-68.7,25.8-136.5,91.9-159.1
	c50-17.1,96.9-8.6,137.4,25.8c37.9,32.1,53.9,74.3,48.7,123.6c-3.5,32.8-17.5,61-41.5,83.8c-13.7,13.1-27.2,26-35.3,43.4
	c-2.4,5.1-4.4,10.6-6.5,15.8c-1.1,1.1-2.5,1.3-4,1.3c-11.1,0.1-22.2,0.2-33.1,0c-1.1,0-2.2-0.1-3.2-0.8c-2.9-2.3-1.8-5.1-1.1-7.9
	c4.6-18.2,9.6-36.4,14.2-54.5c7.9-30.2,15.8-60.4,23.7-90.6c0.2-0.9,0.5-1.9,0.6-2.8c0.2-3.2-1.3-4.6-3.9-3.1
	c-6.9,4.2-12.5,2.1-18.3-2.5c-6.5-5.1-13.6-4.6-20.3,0.3c-8.3,6.2-12.5,6.2-20.4-0.2c-6.1-4.9-14.4-5-20.7,0.2
	c-5.6,4.7-11.3,6.4-17.9,2.4c-1-0.6-2.1-1.1-3.1-0.2c-1.2,1.2-0.7,2.7-0.4,4.1c2.8,11,5.5,22,8.3,32.8c9.7,37.6,19.3,75.3,29,113
	c0.8,3,2.3,6.2-0.9,8.9c-1.6,1-3.4,0.9-5,0.9c-10,0.1-20,0.1-30,0C198.4,385.4,196.4,385.5,194.8,384z"/>
<path class="st2" d="M306.7,458c-37.4,0-74.8,0-112.1,0c-6.8-1.2-10.5-4.8-10.6-10.8c-0.1-6.1,3.5-10,10.6-11.3
	c1.6-2,3.9-2.1,6.1-2.1c33.2-0.1,66.6-0.1,99.8,0c2.3,0,4.5,0.1,6,2.1c6.7,2,9.8,5.4,9.7,11.3C316.2,452.7,313.2,456.1,306.7,458z"
	/>
<path class="st0" d="M446.2,213.1c5.4,0,10.9-0.2,16.2,0.1c5.9,0.3,9.7,3.3,10.7,8.4c0.9,4.5-1,8-4.8,10.5c-1.3,0.8-2.7,1.2-4.1,1.2
	c-12.4,0.5-24.8,1-37.2-0.2c-6.6-0.7-10.4-7.5-7.8-13.6c2-4.6,6-6.3,10.8-6.4C435.4,213,440.8,213.1,446.2,213.1L446.2,213.1z"/>
<path class="st0" d="M54.2,213.1c5.5,0,11.2-0.2,16.7,0.1c5.7,0.3,9.7,3.7,10.6,8.5c0.9,4.6-0.9,8.1-4.8,10.4
	c-0.9,0.5-2.1,1-3.1,1.1c-12.9,0.8-25.7,1.3-38.6-0.2c-7.3-0.8-10.4-9.5-6.1-15.4c2.5-3.5,6.1-4.4,10-4.5
	C44,213.1,49.1,213.1,54.2,213.1z"/>
<path class="st0" d="M120.7,104.2c-3.2-0.3-5.7-1.7-7.9-4c-7.5-7.5-15.1-15-22.7-22.7c-5-5.1-5.2-10.9-0.9-15.2
	c4.3-4.2,9.9-4.1,14.8,0.8c7.9,7.6,15.6,15.4,23.3,23.3c3.3,3.4,4.5,7.3,2.4,11.8C128,101.9,124.8,103.8,120.7,104.2z"/>
<path class="st0" d="M379.4,104.2c-3.4-0.4-6.4-1.8-8.4-5c-2-3.3-2.3-6.7-0.1-9.9c1.5-2.3,3.4-4.2,5.2-6.1c6.6-6.7,13.2-13.5,20-20
	c4.9-4.8,10.6-5,14.8-0.9c4.5,4.3,4.3,10.1-0.7,15.2c-7.4,7.6-15,15.1-22.7,22.7C385.4,102.4,382.8,103.9,379.4,104.2z"/>
<path class="st0" d="M120.9,342.5c7.5,0.1,12.4,8.7,8.4,15.2c-0.7,1.1-1.5,2.1-2.4,3c-7.5,7.6-15,15.2-22.7,22.7
	c-5.2,5-10.9,5.2-15.2,0.8c-4.2-4.3-4.1-9.9,0.8-14.8c7.5-7.8,15.2-15.3,22.9-23C115.1,344.2,117.7,342.7,120.9,342.5z"/>
<path class="st0" d="M379.4,342.5c3.4,0.2,6,1.8,8.4,4.2c7.4,7.4,14.9,14.8,22.3,22.4c5.1,5.2,5.4,10.9,1.2,15.2
	c-4.4,4.5-10,4.3-15.2-0.8c-7.7-7.6-15.3-15.2-22.9-23c-3.3-3.3-4.7-7.2-2.7-11.8C372.2,344.9,375.3,343,379.4,342.5z"/>
<path class="st3" d="M260.7,387.7c-1.7,0-3.5-0.1-5.2-0.3l-1.6-0.2l-1-1.2c-3-3.7-1.8-7.7-1.1-10.1l0.1-0.3
	c11.5-43.7,23.3-88.8,34.9-133.4c0.2-0.6,0.3-1.3,0.5-1.9c-0.6-0.2-1.3-0.4-2-0.6c-3.8-1-7.4-3-11-5.9c-1.6-1.3-2.9-1.9-3.7-1.9
	c-0.8,0-2,0.6-3.7,2c-5.4,4.3-11.1,6.5-16.8,6.5c-5.6,0-11.2-2.2-16.6-6.4c-1.9-1.5-3.2-2.2-3.9-2.2c-0.7,0-2,0.7-3.8,2.1
	c-4,3.1-7.7,5-11.8,5.9c-0.3,0.1-0.8,0.2-1.2,0.3c0.1,0.4,0.2,0.9,0.3,1.1c6,21.8,11.9,44,17.6,65.4c1.8,6.7,3.5,13.3,5.3,20
	c2.5,9.4,5.1,18.8,7.6,28.3c1.9,6.9,3.7,13.8,5.6,20.6c0.1,0.3,0.1,0.6,0.2,0.8c0.6,2.4,1.6,6-1.1,9.5l-1,1.4l-1.7,0.2
	c-1.7,0.2-3.5,0.3-5.2,0.3s-3.5-0.1-5.2-0.3l-2.7-0.3l-0.7-2.6c-3.9-15.3-7.8-30.5-11.7-45.8c-3.9-15.4-7.9-30.9-11.8-46.3
	c-1.6-6.3-3.2-12.5-4.8-18.7c-3.7-14.3-7.4-29.1-11.2-43.7c-0.6-2.4-1.9-7.4,3.1-10.4l0.1-0.1c1.3-0.8,2.7-1.1,4.1-1.1
	c2.8,0,4.9,1.5,6.3,2.6c1.2,1,2.5,1.5,3.8,1.5c1.6,0,3.4-0.7,5-2.2c5.3-4.6,10.5-6.9,15.8-6.9c5.2,0,10.3,2.2,15.4,6.6
	c1.9,1.7,3.5,2.5,4.9,2.5c1.4,0,3.1-0.8,5-2.3c6.1-4.8,10.7-6.8,15.4-6.8c4.6,0,9.2,2,15.4,6.6c2.3,1.7,3.9,2.4,5.2,2.4
	c0.7,0,1.9-0.2,4.2-1.7c1.6-1.1,3.6-2.4,6.2-2.4c1.6,0,3.1,0.5,4.5,1.5c4.5,3.3,3.3,8.4,2.7,10.8c-3,11.3-5.9,22.6-8.9,33.8
	c-2.9,11.3-5.9,22.5-8.9,33.7l-3.9,14.9c-6.1,23.5-12.5,47.7-18.8,71.6l-0.7,2.6l-2.7,0.3C264.2,387.6,262.4,387.7,260.7,387.7z"/>
<path class="st3" d="M245.3,383.4c-3.2,0.4-6.2,0.4-9.4,0c-7.8-30.7-15.6-61.4-23.4-92.1c-5.3-20.9-10.6-41.6-16-62.5
	c-0.6-2.3-1.2-4.5,1.3-5.9c2.3-1.3,4.2-0.4,6,1.1c4.3,3.5,9.5,3,13.8-0.8c8.9-7.8,17.2-7.9,25.9-0.3c5.1,4.5,9.6,4.5,15,0.3
	c10.1-7.9,15.6-7.9,26-0.2c5.3,4,8.8,4.3,13.9,0.9c2-1.3,4-2.6,6.1-1c2.3,1.7,1.8,4.2,1.2,6.6c-5.9,22.5-11.8,45-17.7,67.5
	c-7.5,28.8-15,57.7-22.7,86.4c-3.2,0.4-6.2,0.4-9.4,0c-1.8-2.2-0.9-4.5-0.2-6.8c11.7-44.5,23.3-89,34.9-133.5
	c1.5-5.7,1.5-5.7-4.4-7.3c-3.6-1-6.7-2.9-9.6-5.1c-4.8-3.8-7.7-3.7-12.4,0.1c-9.4,7.5-19,7.5-28.4,0.1c-5.1-4.1-7.5-4.2-12.7-0.1
	c-3.1,2.4-6.3,4.3-10.2,5.1c-5,1.3-5.2,1.5-3.9,6.4c7.8,28.4,15.3,56.9,22.9,85.4c4.4,16.3,8.8,32.6,13.2,48.9
	C246,378.8,246.9,381.1,245.3,383.4z"/>
<path class="st2" d="M194.7,422.6c-5.3-1-9.5-3.6-10.5-9.4c-0.8-4.8,1-8.6,5.1-11.4c1.5-1,3.2-1.4,4.9-1.4c1.7-2.3,4-3,6.6-3
	c33.1,0,66.2-0.1,99.3,0c2.7,0,5.1,0.3,6.5,3c5.7,1.2,9.1,4.6,9.5,9.7c0.5,5.9-2.5,9.6-9.8,12.3c-1.4,1.9-3.5,2.1-5.5,2.1
	c-33.5,0.1-67.2,0.1-100.7,0C198.2,424.6,196.1,424.4,194.7,422.6z"/>
<path class="st1" d="M306.8,400.5c-2-0.9-4-0.9-6-0.9c-33.4,0-66.9,0-100.3,0c-2.1,0-4.2,0.2-6.1,0.9c1.2-5.4,0.2-11,0.6-16.4
	c11-1,22-0.2,32.9-0.4c2.7-0.1,5.4-0.2,8.1-0.3c2.6-3.2,6.2-1.6,9.4-2c3.6-0.3,7.1-0.2,10.8,0c3.2,0.4,6.8-1.2,9.5,2
	c11.8,0.1,23.5,0.2,35.3,0.3c1.9,0,3.8,0.2,5.7,0.4C306.6,389.5,306.7,395,306.8,400.5z"/>
<path class="st1" d="M306.6,436c-37.3,0-74.7,0-112,0c0-4.5,0.1-8.9,0.1-13.5c37.3,0,74.6,0,111.8,0
	C306.6,427,306.6,431.5,306.6,436z"/>
</svg>
