<?xml version="1.0" encoding="utf-8"?>
<!-- Generator: Adobe Illustrator 26.4.1, SVG Export Plug-In . SVG Version: 6.00 Build 0)  -->
<svg version="1.1" id="Layer_1" xmlns="http://www.w3.org/2000/svg" xmlns:xlink="http://www.w3.org/1999/xlink" x="0px" y="0px"
	 viewBox="0 0 250 250" style="enable-background:new 0 0 250 250;" xml:space="preserve">
<style type="text/css">
	.st0{fill:#FFDF29;stroke:#FFDF29;stroke-width:3;stroke-linecap:round;stroke-linejoin:round;stroke-miterlimit:10;}
	.st1{fill:#63AAC1;stroke:#63AAC1;stroke-width:3;stroke-linecap:round;stroke-linejoin:round;stroke-miterlimit:10;}
	.st2{fill:#A9CEDB;}
	.st3{fill:none;stroke:#A9CEDB;stroke-width:3;stroke-linecap:round;stroke-linejoin:round;stroke-miterlimit:10;}
	.st4{fill:#479FB9;stroke:#479FB9;stroke-width:3;stroke-linecap:round;stroke-linejoin:round;stroke-miterlimit:10;}
</style>
<path id="XMLID_15_" class="st0" d="M185.8,106.5c0-37-32-66.5-69.9-62.3c-28.3,3.2-51.4,25.9-55.1,54.2c-2.3,17.6,2.9,34,12.7,46.5
	c11.2,14.4,16.8,32.4,16.8,50.8v2.6h65.5v-2.6c0-19,6.7-37,17.9-52.2C181.4,133.1,185.8,120.3,185.8,106.5z"/>
<path id="XMLID_13_" class="st1" d="M101,235.5v0.2c0,6.9,5.5,12.4,12.4,12.4h18.7c6.9,0,12.4-5.5,12.4-12.4v-0.2c0-2.1-1.8-4-4-4
	H105C102.9,231.5,101,233.3,101,235.5z"/>
<ellipse id="XMLID_12_" transform="matrix(0.6352 -0.7723 0.7723 0.6352 -30.1452 100.2543)" class="st2" cx="91.1" cy="82" rx="18.1" ry="10.6"/>
<polyline id="XMLID_11_" class="st3" points="137,140.3 123.1,197.1 109.3,140.3 "/>
<path id="XMLID_10_" class="st3" d="M98.1,133.4c6.3,0,6.3,5.2,12.4,5.2c6.3,0,6.3-5.2,12.4-5.2c6.3,0,6.3,5.2,12.4,5.2
	c6.3,0,6.3-5.2,12.4-5.2"/>
<g>
	<line id="XMLID_9_" class="st0" x1="123.1" y1="27.9" x2="123.1" y2="3.9"/>
	<line id="XMLID_8_" class="st0" x1="165.8" y1="33.5" x2="176.6" y2="12.1"/>
	<line id="XMLID_7_" class="st0" x1="194.8" y1="57.6" x2="209.2" y2="48.1"/>
	<line id="XMLID_6_" class="st0" x1="205.2" y1="91.1" x2="216.8" y2="89.2"/>
	<line id="XMLID_5_" class="st0" x1="80.4" y1="33.5" x2="69.5" y2="12.1"/>
	<line id="XMLID_4_" class="st0" x1="51.3" y1="57.6" x2="36.9" y2="48.1"/>
	<line id="XMLID_3_" class="st0" x1="40.9" y1="91.1" x2="29.3" y2="89.2"/>
</g>
<path id="XMLID_2_" class="st1" d="M153.7,215H91.9c-4.6,0-8.4-3.7-8.4-8.4l0,0c0-4.6,3.7-8.4,8.4-8.4h61.8c4.6,0,8.4,3.7,8.4,8.4
	l0,0C162.1,211.3,158.3,215,153.7,215z"/>
<path id="XMLID_14_" class="st4" d="M149.2,231.5H96.5c-4.3,0-7.6-3.5-7.6-7.6v-0.9c0-4.3,3.5-7.6,7.6-7.6h52.8
	c4.3,0,7.6,3.5,7.6,7.6v0.9C156.9,228.1,153.5,231.5,149.2,231.5z"/>
</svg>
